<?xml version="1.0" encoding="UTF-8" standalone="no"?>
<!DOCTYPE svg PUBLIC "-//W3C//DTD SVG 1.1//EN" "http://www.w3.org/Graphics/SVG/1.1/DTD/svg11.dtd">
<svg width="100%" height="100%" viewBox="0 0 710 724" version="1.1" xmlns="http://www.w3.org/2000/svg" xmlns:xlink="http://www.w3.org/1999/xlink" xml:space="preserve" xmlns:serif="http://www.serif.com/" style="fill-rule:evenodd;clip-rule:evenodd;stroke-linejoin:round;stroke-miterlimit:2;">
    <path d="M347.2,92.13C497.262,92.34 620.626,215.877 620.626,365.94C620.626,516.147 497.024,639.75 346.816,639.75C196.608,639.75 73.006,516.147 73.006,365.94C73.006,256.106 139.093,156.449 240.27,113.71C274.098,99.397 310.469,92.056 347.2,92.13M347.2,59.13C177.2,59.13 39.46,196.92 39.46,366.88C39.46,536.84 177.24,674.62 347.2,674.62C517.16,674.62 655,536.84 655,366.88C655,196.92 517.17,59.13 347.2,59.13Z" style="fill:rgb(249,249,249);fill-rule:nonzero;"/>
    <path d="M373.5,77.5C373.5,77.5 481.5,136.5 481.5,374.5C481.5,594.5 365.5,657.5 365.5,657.5" style="fill: none;stroke: #f9f9f9;stroke-miterlimit: 10;stroke-width: 33px;"/>
    <path d="M325.91,77.5C325.91,77.5 210,136.5 210,374.5C210,594.5 334.5,657.5 334.5,657.5" style="fill: none;stroke: #f9f9f9;stroke-miterlimit: 10;stroke-width: 33px;"/>
    <path d="M100,211C100,211 211,235 347,235C481,235 586,211 586,211" style="fill: none;stroke: #f9f9f9;stroke-miterlimit: 10;stroke-width: 33px;"/>
    <path d="M586,521C586,521 475,497 339,497C205,497 100,521 100,521" style="fill: none;stroke: #f9f9f9;stroke-miterlimit: 10;stroke-width: 33px;"/>
    <path d="M59,367L635,367" style="fill:none;fill-rule:nonzero;"/>
</svg>



    