<svg width="124" height="45" viewBox="0 0 124 45" fill="none" xmlns="http://www.w3.org/2000/svg">
<g clip-path="url(#clip0)">
<path d="M1.59004 0.350558L3.22296 1.70995V7.83693H12.05L13.2504 9.34822L12.0461 10.7855H3.22296V16.6437L1.59004 17.9992L0 16.6437V1.70605L1.59004 0.350558ZM6.36407 15.7907H13.0945L14.2208 17.2241L13.0204 18.7393H6.36407L5.27676 17.341L6.36407 15.7907ZM6.5979 0H13.0165L14.2169 1.5113L13.0165 2.94858H6.67584L5.39368 1.55414L6.5979 0ZM42.37 2.90963L43.808 4.45988L42.37 6.01402H20.6355L19.2364 4.45988L20.6355 2.90963H42.37V2.90963ZM18.0712 9.34822L19.4274 8.18359L20.7875 9.34822V11.0582C20.7875 13.9288 21.563 16.2932 25.0198 16.2932H25.7174C28.8234 16.2932 30.5304 14.1976 30.5304 10.9374V9.30927L31.8515 8.14464L33.2116 9.27032V11.0543C33.2116 13.9639 34.0651 16.1374 37.405 16.1374H37.9857C41.2476 16.1374 41.8283 13.6523 41.8672 10.9374V9.19242L43.1884 8.10569L44.5836 9.23137V10.9764C44.5446 14.739 43.5352 19.047 38.1026 19.047H37.5219C34.299 19.047 32.553 17.6097 31.8554 15.8258C31.0409 17.6487 28.8663 19.2418 25.9161 19.2418H25.2147C19.6261 19.2418 18.114 15.8686 18.0751 11.1322V9.34822H18.0712ZM29.1742 37.4357L28.3986 35.3402L30.4174 34.7598L37.5219 37.9772V31.3438L38.96 30.1402L40.4331 31.3438V39.3755L43.0715 40.5791L43.808 42.5188L41.7503 43.255L29.1742 37.4357ZM41.8283 23.2732L43.7691 24.1652L43.1494 26.1439L25.6784 34.2534L23.5817 33.4394L24.4352 31.4217L41.8283 23.2732ZM16.6214 34.3313L18.3284 35.7297C18.1725 40.657 13.9402 43.255 8.9362 43.255H8.42957C5.94318 43.255 3.03589 42.3241 1.17305 40.5401L1.36401 38.5614L3.18788 38.3277C4.54799 39.4923 6.44981 40.3064 8.23471 40.3064H8.78031C12.1592 40.3064 14.7586 38.912 15.0314 35.6128L16.6214 34.3313ZM15.0275 31.1101C14.8716 27.6941 12.3111 26.3386 8.77642 26.3386H8.23081C6.13414 26.3386 4.54409 27.1527 3.18398 28.3173L1.36401 28.0836L1.16915 26.1049C3.03199 24.282 5.6314 23.429 8.35163 23.429H8.89333C13.9402 23.429 18.1725 25.992 18.3245 30.9932L16.6175 32.3526L15.0275 31.1101Z" fill="white"/>
<path d="M60.8657 5.88946H56.8204C56.9101 6.67627 57.4596 7.25663 58.2663 7.25663C58.7573 7.25663 59.2094 7.06188 59.4744 6.66458L60.7605 6.69964C60.3045 7.71236 59.3614 8.24599 58.2663 8.24599C56.7386 8.24599 55.6123 7.10862 55.6123 5.5389C55.6123 3.96918 56.7152 2.8396 58.2312 2.8396C59.6108 2.8396 60.8618 3.76274 60.8618 5.87777V5.88946H60.8657ZM56.8204 5.0598H59.5874C59.529 4.40153 58.995 3.82895 58.2429 3.82895C57.4829 3.82895 56.9568 4.33142 56.8204 5.0598Z" fill="white"/>
<path d="M65.0439 4.36258C64.6581 3.98865 64.0891 3.80558 63.6994 3.80558C63.2551 3.80558 63.0291 4.04318 63.0291 4.28468C63.0291 4.56902 63.1538 4.70535 63.5084 4.82999L64.397 5.1377C65.3518 5.46879 65.7532 5.99073 65.7532 6.62952C65.7532 7.44749 65.1257 8.24599 63.8397 8.24599C62.9979 8.24599 62.1639 7.90322 61.6768 7.4397L62.3471 6.56331C62.7329 6.94892 63.3369 7.23326 63.8163 7.23326C64.2723 7.23326 64.5684 7.03851 64.5684 6.7308C64.5684 6.39971 64.4087 6.26339 63.8397 6.07253L62.9862 5.7765C62.2691 5.52721 61.8716 4.98969 61.8716 4.35479C61.8716 3.60304 62.5224 2.8396 63.75 2.8396C64.3541 2.8396 65.1608 3.0772 65.6986 3.57967L65.0439 4.36258Z" fill="white"/>
<path d="M69.4321 7.25273C70.0245 7.25273 70.4805 6.96839 70.7416 6.50097L71.7198 7.00344C71.3106 7.76688 70.4103 8.24208 69.4321 8.24208C67.9045 8.24208 66.7119 7.1164 66.7119 5.54278C66.7119 3.96137 67.9083 2.83569 69.4321 2.83569C70.4103 2.83569 71.3106 3.31479 71.7198 4.07433L70.7416 4.5768C70.4805 4.10939 70.0245 3.82505 69.4321 3.82505C68.4968 3.82505 67.8616 4.56511 67.8616 5.54278C67.8616 6.52045 68.4968 7.25273 69.4321 7.25273Z" fill="white"/>
<path d="M75.2856 2.8396C76.8016 2.8396 78.0292 3.96528 78.0292 5.5389C78.0292 7.10862 76.7977 8.24599 75.2856 8.24599C73.7696 8.24599 72.5537 7.10862 72.5537 5.5389C72.5537 3.96528 73.7696 2.8396 75.2856 2.8396ZM75.2856 3.82895C74.3503 3.82895 73.7034 4.55734 73.7034 5.535C73.7034 6.51267 74.3542 7.25274 75.2856 7.25274C76.2209 7.25274 76.8679 6.51267 76.8679 5.535C76.8679 4.55734 76.2209 3.82895 75.2856 3.82895Z" fill="white"/>
<path d="M80.4997 0.140137H79.374V8.1056H80.4997V0.140137Z" fill="white"/>
<path d="M85.1143 4.65861C85.1143 4.11329 84.7051 3.82895 84.0426 3.82895C83.4853 3.82895 82.9826 4.06655 82.5968 4.37427L82.0628 3.53293C82.4954 3.159 83.2242 2.8396 84.1245 2.8396C85.4807 2.8396 86.2523 3.59135 86.2523 4.68198V8.10966H85.1143V7.57603C84.8181 8.05513 84.179 8.24599 83.6451 8.24599C82.472 8.24599 81.79 7.57603 81.79 6.62952C81.79 5.62849 82.4954 5.0598 83.6451 5.0598H84.748C85.0091 5.0598 85.1143 4.94684 85.1143 4.7404V4.65861ZM85.1143 6.23223V5.78818C85.013 5.86609 84.8298 5.90114 84.5687 5.90114H83.8867C83.2827 5.90114 82.9748 6.16211 82.9748 6.59447C82.9748 6.99177 83.271 7.35791 83.8867 7.35791C84.522 7.35791 85.1143 7.02682 85.1143 6.23223Z" fill="white"/>
<path d="M57.0862 19.7443H55.96V11.7788H57.0862V15.374C57.359 14.8598 58.0761 14.4742 58.8283 14.4742C60.3209 14.4742 61.4004 15.5999 61.4004 17.1696C61.4004 18.7393 60.2975 19.8806 58.8049 19.8806C58.0644 19.8806 57.3707 19.5184 57.0862 19.0042V19.7443ZM57.0512 17.1735C57.0512 18.1512 57.702 18.9029 58.6451 18.9029C59.5804 18.9029 60.2391 18.1512 60.2391 17.1735C60.2391 16.1958 59.5804 15.4558 58.6451 15.4558C57.6981 15.4558 57.0512 16.1958 57.0512 17.1735Z" fill="white"/>
<path d="M65.6475 15.6155H65.0551C64.3263 15.6155 63.847 16.0362 63.847 17.1969V19.7443H62.7207V14.6106H63.8236V15.4285C64.0185 14.8599 64.529 14.5171 65.2461 14.5171C65.3708 14.5171 65.5072 14.5288 65.6436 14.5521V15.6155H65.6475Z" fill="white"/>
<path d="M68.1772 19.7443H67.0392V15.5454H66.2637V14.6106H68.1772V19.7443ZM67.5419 11.9619C67.9862 11.9619 68.3487 12.3281 68.3487 12.7721C68.3487 13.2161 67.9862 13.5706 67.5419 13.5706C67.0977 13.5706 66.743 13.2161 66.743 12.7721C66.743 12.3242 67.0977 11.9619 67.5419 11.9619Z" fill="white"/>
<path d="M71.2874 12.5422V14.6144H72.4955V15.5492H71.2874V18.4277C71.2874 18.7822 71.5485 18.8484 71.8096 18.8484C72.2071 18.8484 72.5033 18.8016 72.5033 18.8016V19.7482C72.5033 19.7482 71.946 19.8066 71.5251 19.8066C70.9093 19.8066 70.1455 19.6819 70.1455 18.6809V15.5492H69.3037V14.6144H70.1494V12.5422H71.2874Z" fill="white"/>
<path d="M76.6846 16.2971C76.6846 15.7518 76.2754 15.4675 75.6129 15.4675C75.0556 15.4675 74.5529 15.7051 74.1671 16.0128L73.6332 15.1714C74.0657 14.7975 74.7945 14.4781 75.6948 14.4781C77.051 14.4781 77.8226 15.2299 77.8226 16.3205V19.7482H76.6846V19.2145C76.3885 19.6936 75.7493 19.8845 75.2154 19.8845C74.0424 19.8845 73.3604 19.2145 73.3604 18.268C73.3604 17.267 74.0657 16.6983 75.2154 16.6983H76.3183C76.5794 16.6983 76.6846 16.5854 76.6846 16.3789V16.2971ZM75.079 11.7788H76.4235L77.5069 13.6679H76.3456L75.7532 12.6085L75.1608 13.6679H74.0112L75.079 11.7788ZM76.6846 17.8668V17.4228C76.5833 17.5007 76.4001 17.5358 76.139 17.5358H75.457C74.853 17.5358 74.5451 17.7967 74.5451 18.2291C74.5451 18.6264 74.8413 18.9925 75.457 18.9925C76.0923 18.9964 76.6846 18.6653 76.6846 17.8668Z" fill="white"/>
<path d="M80.5345 14.9065C80.5345 15.0545 80.5345 15.1441 80.5229 15.2492C80.9554 14.7468 81.5478 14.4741 82.1986 14.4741C83.4067 14.4741 84.1121 15.2259 84.1121 16.3983V19.7442H82.9742V16.558C82.9742 15.8296 82.5299 15.4868 81.9609 15.4868C81.4699 15.4868 80.9944 15.7361 80.5618 16.2386V19.7442H79.4355V14.6104H80.5423V14.9065H80.5345Z" fill="white"/>
<path d="M87.0864 19.7443H85.9484V15.5454H85.1729V14.6106H87.0864V19.7443ZM86.4472 11.9619C86.8915 11.9619 87.2539 12.3281 87.2539 12.7721C87.2539 13.2161 86.8915 13.5706 86.4472 13.5706C86.0029 13.5706 85.6483 13.2161 85.6483 12.7721C85.6522 12.3242 86.0029 11.9619 86.4472 11.9619Z" fill="white"/>
<path d="M91.1196 18.8912C91.712 18.8912 92.168 18.6068 92.4291 18.1394L93.4073 18.6419C92.9981 19.4053 92.0978 19.8805 91.1196 19.8805C89.5919 19.8805 88.3994 18.7548 88.3994 17.1812C88.3994 15.5998 89.5958 14.4741 91.1196 14.4741C92.0978 14.4741 92.9981 14.9532 93.4073 15.7128L92.4291 16.2152C92.168 15.7478 91.712 15.4635 91.1196 15.4635C90.1843 15.4635 89.5491 16.2035 89.5491 17.1812C89.5491 18.1589 90.1843 18.8912 91.1196 18.8912Z" fill="white"/>
<path d="M97.5655 16.297C97.5655 15.7517 97.1563 15.4674 96.4938 15.4674C95.9365 15.4674 95.4337 15.705 95.0479 16.0127L94.514 15.1714C94.9466 14.7974 95.6754 14.478 96.5756 14.478C97.9318 14.478 98.7035 15.2298 98.7035 16.3204V19.7481H97.5655V19.2145C97.2693 19.6936 96.6302 19.8844 96.0963 19.8844C94.9232 19.8844 94.2412 19.2145 94.2412 18.268C94.2412 17.2669 94.9466 16.6982 96.0963 16.6982H97.1992C97.4603 16.6982 97.5655 16.5853 97.5655 16.3788V16.297ZM97.5655 17.8668V17.4227C97.4642 17.5006 97.281 17.5357 97.0199 17.5357H96.3379C95.7338 17.5357 95.4259 17.7966 95.4259 18.229C95.4259 18.6263 95.7221 18.9924 96.3379 18.9924C96.9731 18.9963 97.5655 18.6653 97.5655 17.8668Z" fill="white"/>
<path d="M106.95 18.9925C106.677 19.5067 105.983 19.8806 105.231 19.8806C103.739 19.8806 102.647 18.7432 102.647 17.1696C102.647 15.5999 103.719 14.4742 105.208 14.4742C105.972 14.4742 106.677 14.8598 106.962 15.374C106.95 15.0234 106.95 14.5988 106.95 14.2015V11.7749H108.088V19.7404H106.95V18.9925ZM103.805 17.1735C103.805 18.1512 104.456 18.9029 105.399 18.9029C106.334 18.9029 106.993 18.1512 106.993 17.1735C106.993 16.1958 106.33 15.4558 105.399 15.4558C104.456 15.4558 103.805 16.1958 103.805 17.1735Z" fill="white"/>
<path d="M114.663 17.5279H110.621C110.711 18.3147 111.26 18.8951 112.067 18.8951C112.558 18.8951 113.014 18.7003 113.275 18.303L114.561 18.3381C114.105 19.3508 113.162 19.8844 112.067 19.8844C110.539 19.8844 109.413 18.747 109.413 17.1773C109.413 15.6076 110.52 14.478 112.032 14.478C113.412 14.478 114.663 15.4012 114.663 17.5162V17.5279V17.5279ZM110.617 16.6943H113.384C113.326 16.0361 112.792 15.4635 112.04 15.4635C111.28 15.4674 110.754 15.966 110.617 16.6943Z" fill="white"/>
<path d="M58.8702 27.9355C58.8702 27.3901 58.461 27.1058 57.7985 27.1058C57.2412 27.1058 56.7384 27.3434 56.3526 27.6511L55.8187 26.8098C56.2513 26.4359 56.9801 26.1165 57.8803 26.1165C59.2365 26.1165 60.0082 26.8682 60.0082 27.9588V31.3865H58.8702V30.849C58.574 31.3281 57.9349 31.5189 57.4009 31.5189C56.2279 31.5189 55.5459 30.849 55.5459 29.9025C55.5459 28.9014 56.2513 28.3328 57.4009 28.3328H58.5038C58.765 28.3328 58.8702 28.2198 58.8702 28.0134V27.9355ZM58.8702 29.5052V29.0611C58.7689 29.139 58.5857 29.1741 58.3246 29.1741H57.6426C57.0385 29.1741 56.7306 29.4351 56.7306 29.8674C56.7306 30.2647 57.0268 30.6309 57.6426 30.6309C58.2778 30.6309 58.8702 30.2998 58.8702 29.5052Z" fill="white"/>
<path d="M64.5449 27.25H63.9526C63.2238 27.25 62.7444 27.6707 62.7444 28.8314V31.3788H61.6182V26.249H62.7211V27.067C62.9159 26.4983 63.4264 26.1555 64.1435 26.1555C64.2682 26.1555 64.4046 26.1672 64.541 26.1906V27.25H64.5449Z" fill="white"/>
<path d="M67.1526 24.1768V26.2489H68.3607V27.1838H67.1526V30.0622C67.1526 30.4167 67.4137 30.4829 67.6748 30.4829C68.0723 30.4829 68.3685 30.4362 68.3685 30.4362V31.3827C68.3685 31.3827 67.8112 31.4411 67.3903 31.4411C66.7746 31.4411 66.0107 31.3165 66.0107 30.3154V27.1877H65.1689V26.2528H66.0107V24.1807H67.1526V24.1768Z" fill="white"/>
<path d="M74.5454 29.1627H70.504C70.5937 29.9495 71.1432 30.5298 71.9499 30.5298C72.4409 30.5298 72.8969 30.3351 73.158 29.9378L74.4441 29.9728C73.9881 30.9856 73.045 31.5192 71.9499 31.5192C70.4222 31.5192 69.2959 30.3818 69.2959 28.8121C69.2959 27.2424 70.4027 26.1128 71.9148 26.1128C73.2944 26.1128 74.5454 27.0359 74.5454 29.151V29.1627ZM70.504 28.333H73.271C73.2126 27.6747 72.6786 27.1021 71.9265 27.1021C71.1626 27.1021 70.6404 27.6046 70.504 28.333Z" fill="white"/>
<path d="M78.7265 27.6394C78.3407 27.2655 77.7717 27.0824 77.382 27.0824C76.9377 27.0824 76.7117 27.32 76.7117 27.5615C76.7117 27.8459 76.8364 27.9822 77.191 28.1068L78.0796 28.4146C79.0344 28.7456 79.4358 29.2676 79.4358 29.9064C79.4358 30.7243 78.8084 31.5228 77.5223 31.5228C76.6805 31.5228 75.8504 31.1801 75.3594 30.7166L76.0297 29.8402C76.4155 30.2258 77.0196 30.5101 77.4989 30.5101C77.9549 30.5101 78.2511 30.3154 78.2511 30.0077C78.2511 29.6766 78.0913 29.5402 77.5223 29.3494L76.6688 29.0534C75.9517 28.8041 75.5542 28.2665 75.5542 27.6316C75.5542 26.8799 76.2012 26.1165 77.4327 26.1165C78.0367 26.1165 78.8434 26.3541 79.3812 26.8565L78.7265 27.6394Z" fill="white"/>
<path d="M85.7876 30.5298C86.38 30.5298 86.836 30.2455 87.0971 29.7781L88.0752 30.2805C87.666 31.044 86.7658 31.5192 85.7876 31.5192C84.2599 31.5192 83.0674 30.3935 83.0674 28.8199C83.0674 27.2385 84.2638 26.1089 85.7876 26.1089C86.7658 26.1089 87.666 26.588 88.0752 27.3514L87.0971 27.8539C86.836 27.3865 86.38 27.1021 85.7876 27.1021C84.8523 27.1021 84.2171 27.8422 84.2171 28.8199C84.2171 29.7975 84.8523 30.5298 85.7876 30.5298Z" fill="white"/>
<path d="M92.2461 27.25H91.6537C90.925 27.25 90.4456 27.6707 90.4456 28.8314V31.3788H89.3193V26.249H90.4222V27.067C90.6171 26.4983 91.1276 26.1555 91.8447 26.1555C91.9694 26.1555 92.1058 26.1672 92.2422 26.1906V27.25H92.2461Z" fill="white"/>
<path d="M94.7748 31.3827H93.6369V27.1838H92.8613V26.249H94.7748V31.3827ZM94.1357 23.5964C94.58 23.5964 94.9424 23.9626 94.9424 24.4066C94.9424 24.8507 94.58 25.2012 94.1357 25.2012C93.6914 25.2012 93.3368 24.8507 93.3368 24.4066C93.3407 23.9626 93.6914 23.5964 94.1357 23.5964Z" fill="white"/>
<path d="M99.3546 27.9355C99.3546 27.3901 98.9454 27.1058 98.2828 27.1058C97.7255 27.1058 97.2228 27.3434 96.837 27.6511L96.3031 26.8098C96.7357 26.4359 97.4644 26.1165 98.3647 26.1165C99.7209 26.1165 100.493 26.8682 100.493 27.9588V31.3865H99.3546V30.849C99.0584 31.3281 98.4192 31.5189 97.8853 31.5189C96.7123 31.5189 96.0303 30.849 96.0303 29.9025C96.0303 28.9014 96.7357 28.3328 97.8853 28.3328H98.9882C99.2493 28.3328 99.3546 28.2198 99.3546 28.0134V27.9355ZM99.3546 29.5052V29.0611C99.2532 29.139 99.0701 29.1741 98.809 29.1741H98.127C97.5229 29.1741 97.215 29.4351 97.215 29.8674C97.215 30.2647 97.5112 30.6309 98.127 30.6309C98.7622 30.6309 99.3546 30.2998 99.3546 29.5052Z" fill="white"/>
<path d="M103.544 24.1768V26.2489H104.752V27.1838H103.544V30.0622C103.544 30.4167 103.805 30.4829 104.066 30.4829C104.464 30.4829 104.76 30.4362 104.76 30.4362V31.3827C104.76 31.3827 104.203 31.4411 103.782 31.4411C103.166 31.4411 102.402 31.3165 102.402 30.3154V27.1877H101.561V26.2528H102.402V24.1807H103.544V24.1768Z" fill="white"/>
<path d="M107.394 31.3827H106.256V27.1838H105.48V26.249H107.394V31.3827ZM106.755 23.5964C107.199 23.5964 107.562 23.9626 107.562 24.4066C107.562 24.8507 107.199 25.2012 106.755 25.2012C106.311 25.2012 105.956 24.8507 105.956 24.4066C105.96 23.9626 106.311 23.5964 106.755 23.5964Z" fill="white"/>
<path d="M111.12 30.2999L112.496 26.249H113.704L111.814 31.3828H110.38L108.556 26.249H109.822L111.12 30.2999Z" fill="white"/>
<path d="M117.624 27.9355C117.624 27.3901 117.215 27.1058 116.552 27.1058C115.995 27.1058 115.492 27.3434 115.107 27.6511L114.573 26.8098C115.005 26.4359 115.734 26.1165 116.634 26.1165C117.99 26.1165 118.762 26.8682 118.762 27.9588V31.3865H117.624V30.849C117.328 31.3281 116.689 31.5189 116.155 31.5189C114.982 31.5189 114.3 30.849 114.3 29.9025C114.3 28.9014 115.005 28.3328 116.155 28.3328H117.258C117.519 28.3328 117.624 28.2198 117.624 28.0134V27.9355ZM117.624 29.5052V29.0611C117.523 29.139 117.34 29.1741 117.078 29.1741H116.396C115.792 29.1741 115.485 29.4351 115.485 29.8674C115.485 30.2647 115.781 30.6309 116.396 30.6309C117.032 30.6309 117.624 30.2998 117.624 29.5052Z" fill="white"/>
<path d="M123.294 27.6394C122.908 27.2655 122.339 27.0824 121.949 27.0824C121.505 27.0824 121.279 27.32 121.279 27.5615C121.279 27.8459 121.404 27.9822 121.758 28.1068L122.647 28.4146C123.602 28.7456 124.003 29.2676 124.003 29.9064C124.003 30.7243 123.376 31.5228 122.09 31.5228C121.248 31.5228 120.418 31.1801 119.927 30.7166L120.597 29.8402C120.983 30.2258 121.587 30.5101 122.066 30.5101C122.522 30.5101 122.818 30.3154 122.818 30.0077C122.818 29.6766 122.659 29.5402 122.09 29.3494L121.236 29.0534C120.519 28.8041 120.122 28.2665 120.122 27.6316C120.122 26.8799 120.769 26.1165 122 26.1165C122.604 26.1165 123.411 26.3541 123.949 26.8565L123.294 27.6394Z" fill="white"/>
<path d="M62.5493 42.9981H61.0217L60.1682 42.0633C59.6771 42.7449 58.9601 43.1344 57.9702 43.1344C56.5594 43.1344 55.6475 42.1334 55.6475 40.961C55.6475 40.0378 56.1502 39.2783 57.0271 38.5694C56.4931 37.9111 56.3334 37.4437 56.3334 36.8867C56.3334 35.5779 57.4051 34.9197 58.4612 34.9197C59.4628 34.9197 60.4527 35.5117 60.4527 36.6958C60.4527 36.9919 60.3825 37.3463 60.1682 37.6735L59.1783 37.4904C59.2913 37.2295 59.3615 36.9997 59.3615 36.8205C59.3615 36.2869 58.964 35.9207 58.4612 35.9207C57.8221 35.9207 57.483 36.3648 57.483 36.8789C57.483 37.2879 57.6779 37.6969 58.165 38.2578C58.8587 39.0407 59.9305 40.1936 60.0552 40.33C60.3747 39.773 60.6358 39.1459 60.7839 38.7252H62.07C61.727 39.6366 61.2594 40.478 60.8502 41.1479L62.5455 42.9591V42.9981H62.5493ZM57.6662 39.3679C57.0738 39.9833 56.8478 40.3923 56.8478 40.9493C56.8478 41.666 57.4402 42.0983 58.0442 42.0983C58.5586 42.0983 59.1159 41.8257 59.4121 41.2804L57.6662 39.3679Z" fill="white"/>
<path d="M67.7796 35.8154V37.8876H68.9877V38.8224H67.7796V41.7009C67.7796 42.0554 68.0407 42.1216 68.3018 42.1216C68.6993 42.1216 68.9955 42.0748 68.9955 42.0748V43.0213C68.9955 43.0213 68.4382 43.0798 68.0173 43.0798C67.4015 43.0798 66.6377 42.9551 66.6377 41.9541V38.8263H65.7959V37.8915H66.6416V35.8193H67.7796V35.8154Z" fill="white"/>
<path d="M75.1723 40.8011H71.131C71.2206 41.5879 71.7701 42.1683 72.5768 42.1683C73.0679 42.1683 73.5238 41.9735 73.7849 41.5762L75.071 41.6113C74.615 42.624 73.6719 43.1576 72.5768 43.1576C71.0491 43.1576 69.9229 42.0202 69.9229 40.4505C69.9229 38.8808 71.0296 37.7512 72.5417 37.7512C73.9213 37.7512 75.1723 38.6744 75.1723 40.7894V40.8011ZM71.1271 39.9714H73.8941C73.8356 39.3132 73.3017 38.7406 72.5495 38.7406C71.7896 38.7406 71.2635 39.243 71.1271 39.9714Z" fill="white"/>
<path d="M78.7925 42.1682C79.3849 42.1682 79.8408 41.8839 80.1019 41.4165L81.0801 41.919C80.6709 42.6824 79.7707 43.1576 78.7925 43.1576C77.2648 43.1576 76.0723 42.0319 76.0723 40.4583C76.0723 38.8769 77.2687 37.7473 78.7925 37.7473C79.7707 37.7473 80.6709 38.2264 81.0801 38.9898L80.1019 39.4923C79.8408 39.0249 79.3849 38.7406 78.7925 38.7406C77.8572 38.7406 77.2219 39.4806 77.2219 40.4583C77.2219 41.436 77.8611 42.1682 78.7925 42.1682Z" fill="white"/>
<path d="M83.431 38.1836C83.431 38.3316 83.431 38.4212 83.4193 38.5263C83.8519 38.0239 84.4443 37.7512 85.0951 37.7512C86.3032 37.7512 87.0086 38.503 87.0086 39.6754V43.0213H85.8707V39.8351C85.8707 39.1067 85.4264 38.7639 84.8574 38.7639C84.3664 38.7639 83.8909 39.0132 83.4583 39.5157V43.0213H82.332V37.8875H83.4349V38.1836H83.431Z" fill="white"/>
<path d="M90.9907 37.7512C92.5067 37.7512 93.7343 38.8769 93.7343 40.4505C93.7343 42.0202 92.5028 43.1576 90.9907 43.1576C89.4747 43.1576 88.2588 42.0202 88.2588 40.4505C88.2588 38.8769 89.4786 37.7512 90.9907 37.7512ZM90.9907 38.7406C90.0554 38.7406 89.4085 39.469 89.4085 40.4466C89.4085 41.4243 90.0593 42.1644 90.9907 42.1644C91.926 42.1644 92.573 41.4243 92.573 40.4466C92.5769 39.469 91.926 38.7406 90.9907 38.7406Z" fill="white"/>
<path d="M96.2087 35.052H95.083V43.0175H96.2087V35.052Z" fill="white"/>
<path d="M100.286 37.7512C101.802 37.7512 103.029 38.8769 103.029 40.4505C103.029 42.0202 101.798 43.1576 100.286 43.1576C98.7696 43.1576 97.5537 42.0202 97.5537 40.4505C97.5537 38.8769 98.7735 37.7512 100.286 37.7512ZM100.286 38.7406C99.3503 38.7406 98.7034 39.469 98.7034 40.4466C98.7034 41.4243 99.3542 42.1644 100.286 42.1644C101.221 42.1644 101.868 41.4243 101.868 40.4466C101.872 39.469 101.221 38.7406 100.286 38.7406Z" fill="white"/>
<path d="M109.433 37.8875V43.4303C109.433 44.2287 109.035 45 107.815 45H105.664V44.0652H107.644C107.952 44.0652 108.295 43.9834 108.295 43.5198V42.2539C108.022 42.7564 107.328 43.1303 106.576 43.1303C105.095 43.1303 104 42.0163 104 40.4466C104 38.8652 105.072 37.7473 106.564 37.7473C107.316 37.7473 108.022 38.1329 108.306 38.6471C108.306 38.5341 108.295 38.4095 108.295 38.2498V37.8836H109.433V37.8875ZM106.748 42.1682C107.691 42.1682 108.341 41.4282 108.341 40.4505C108.341 39.4612 107.691 38.7211 106.748 38.7211C105.812 38.7211 105.165 39.4612 105.165 40.4505C105.161 41.4282 105.812 42.1682 106.748 42.1682Z" fill="white"/>
<path d="M112.464 43.0214H111.326V38.8186H110.551V37.8838H112.464V43.0214ZM111.825 35.2351C112.269 35.2351 112.632 35.6012 112.632 36.0453C112.632 36.4893 112.269 36.8399 111.825 36.8399C111.381 36.8399 111.026 36.4893 111.026 36.0453C111.03 35.6012 111.381 35.2351 111.825 35.2351Z" fill="white"/>
<path d="M117.044 39.5702C117.044 39.0249 116.635 38.7406 115.972 38.7406C115.415 38.7406 114.912 38.9782 114.526 39.2859L113.993 38.4445C114.425 38.0706 115.154 37.7512 116.054 37.7512C117.41 37.7512 118.182 38.503 118.182 39.5936V43.0213H117.044V42.4877C116.748 42.9667 116.109 43.1576 115.575 43.1576C114.402 43.1576 113.72 42.4877 113.72 41.5411C113.72 40.5401 114.425 39.9714 115.575 39.9714H116.678C116.939 39.9714 117.044 39.8585 117.044 39.652V39.5702ZM117.044 41.1438V40.6998C116.943 40.7777 116.76 40.8128 116.498 40.8128H115.816C115.212 40.8128 114.904 41.0737 114.904 41.5061C114.904 41.9034 115.201 42.2695 115.816 42.2695C116.452 42.2695 117.044 41.9384 117.044 41.1438Z" fill="white"/>
</g>
<defs>
<clipPath id="clip0">
<rect width="124" height="45" fill="white"/>
</clipPath>
</defs>
</svg>
